<svg width="100" height="100" viewBox="0 0 100 100" fill="none" xmlns="http://www.w3.org/2000/svg">
<circle cx="50" cy="50" r="50" fill="#6AAB1B"/>
<path d="M45.6903 59.9091V59.6364C45.7206 56.7424 46.0237 54.4394 46.5994 52.7273C47.1752 51.0152 47.9934 49.6288 49.054 48.5682C50.1146 47.5076 51.3873 46.5303 52.8722 45.6364C53.7661 45.0909 54.5691 44.447 55.2812 43.7045C55.9934 42.947 56.554 42.0758 56.9631 41.0909C57.3873 40.1061 57.5994 39.0152 57.5994 37.8182C57.5994 36.3333 57.2509 35.0455 56.554 33.9545C55.857 32.8636 54.9252 32.0227 53.7585 31.4318C52.5919 30.8409 51.2964 30.5455 49.8722 30.5455C48.6297 30.5455 47.4328 30.803 46.2812 31.3182C45.1297 31.8333 44.1676 32.6439 43.3949 33.75C42.6222 34.8561 42.1752 36.303 42.054 38.0909H36.3267C36.4479 35.5152 37.1146 33.3106 38.3267 31.4773C39.554 29.6439 41.1676 28.2424 43.1676 27.2727C45.1828 26.303 47.4176 25.8182 49.8722 25.8182C52.5388 25.8182 54.857 26.3485 56.8267 27.4091C58.8116 28.4697 60.3419 29.9242 61.4176 31.7727C62.5085 33.6212 63.054 35.7273 63.054 38.0909C63.054 39.7576 62.7964 41.2652 62.2812 42.6136C61.7812 43.9621 61.054 45.1667 60.0994 46.2273C59.16 47.2879 58.0237 48.2273 56.6903 49.0455C55.357 49.8788 54.2888 50.7576 53.4858 51.6818C52.6828 52.5909 52.0994 53.6742 51.7358 54.9318C51.3722 56.1894 51.1752 57.7576 51.1449 59.6364V59.9091H45.6903ZM48.5994 73.3636C47.4782 73.3636 46.5161 72.9621 45.7131 72.1591C44.91 71.3561 44.5085 70.3939 44.5085 69.2727C44.5085 68.1515 44.91 67.1894 45.7131 66.3864C46.5161 65.5833 47.4782 65.1818 48.5994 65.1818C49.7206 65.1818 50.6828 65.5833 51.4858 66.3864C52.2888 67.1894 52.6903 68.1515 52.6903 69.2727C52.6903 70.0152 52.5009 70.697 52.1222 71.3182C51.7585 71.9394 51.2661 72.4394 50.6449 72.8182C50.0388 73.1818 49.357 73.3636 48.5994 73.3636Z" fill="white"/>
</svg>
